<svg width="140" height="41" viewBox="0 0 140 41" fill="none" xmlns="http://www.w3.org/2000/svg">
<path d="M1 28.3139C2.62136 28.3139 54.0211 -8.87898 45.8806 14.962C44.3261 19.5148 48.4409 24.3898 52.5569 21.8993C53.7507 21.1769 54.7923 20.4783 55.6975 19.8061C58.9129 17.4186 67.8089 8.93308 71.6971 7.97344C79.616 6.01901 87.1437 3.51843 90.7636 2.48264C93.0992 1.81433 92.2786 14.0242 90.7502 15.9125V15.9125C89.3328 17.6637 93.2194 23.6279 95.2562 24.5907C101.949 27.7541 108.292 32.8944 112.42 36.7712C115.157 39.341 119.822 39.5307 122.198 36.6236C124.509 33.7951 125.888 31.0662 126.662 28.6186C128.273 23.5273 130.471 21.6709 134.684 24.9523L139 28.3139" stroke="#23D007" stroke-width="3"/>
</svg>
