<svg width="146" height="41" viewBox="0 0 146 41" fill="none" xmlns="http://www.w3.org/2000/svg">
<path d="M1 2.71236C2.48587 2.71236 33.8494 -3.36849 29.9157 20.0023C28.6407 27.577 35.2091 35.0219 41.6077 30.7723C52.5536 23.5028 59.9203 15.9736 62.8951 12.3127C64.1305 10.7924 63.9874 11.4015 64.1262 13.3555C65.7517 36.2308 85.5626 23.6278 92.937 14.1468C94.4429 12.2108 98.4401 13.7827 96.907 15.6972V15.6972C95.4868 17.4707 99.3742 23.4646 101.423 24.4461C108.097 27.6425 114.42 32.8333 118.531 36.7429C121.263 39.3415 125.872 39.5258 128.242 36.5936C130.617 33.6555 132.007 30.8236 132.767 28.2977C134.296 23.2218 136.425 21.4335 140.588 24.7156L145 28.1943" stroke="#23D007" stroke-width="3"/>
</svg>
