<svg width="11" height="13" viewBox="0 0 11 13" fill="none" xmlns="http://www.w3.org/2000/svg">
<path d="M9.16828 12.6251C8.95041 12.6256 8.73515 12.5967 8.5383 12.5407C8.34146 12.4847 8.16803 12.4029 8.03078 12.3014L0.987027 7.05137C0.772533 6.8948 0.655273 6.69842 0.655273 6.49574C0.655273 6.29307 0.772533 6.09669 0.987027 5.94012L8.27869 0.690119C8.52623 0.51143 8.88193 0.399058 9.26756 0.377726C9.65318 0.356394 10.0371 0.427848 10.3349 0.576369C10.6328 0.72489 10.82 0.938313 10.8556 1.16969C10.8912 1.40106 10.7721 1.63143 10.5245 1.81012L4.00578 6.50012L10.3058 11.1901C10.4841 11.3186 10.5974 11.475 10.6322 11.6408C10.667 11.8067 10.6219 11.975 10.5023 12.126C10.3826 12.277 10.1934 12.4042 9.95697 12.4926C9.72056 12.5811 9.44687 12.6271 9.16828 12.6251Z" fill="#393939"/>
</svg>
