<svg width="11" height="13" viewBox="0 0 11 13" fill="none" xmlns="http://www.w3.org/2000/svg">
<path d="M1.58297 12.6252C1.24223 12.6256 0.912008 12.5544 0.649636 12.4239C0.501968 12.3505 0.379903 12.2603 0.290431 12.1585C0.20096 12.0567 0.14584 11.9453 0.128229 11.8307C0.110619 11.7161 0.130863 11.6005 0.187803 11.4906C0.244743 11.3807 0.337258 11.2786 0.460053 11.1902L6.99338 6.50019L0.693387 1.80144C0.57225 1.71194 0.481787 1.60896 0.427199 1.49841C0.372611 1.38786 0.354974 1.27193 0.375302 1.15728C0.39563 1.04263 0.453521 0.931524 0.54565 0.830342C0.637778 0.72916 0.762327 0.639899 0.912137 0.567692C1.06302 0.488035 1.23972 0.427951 1.43115 0.391211C1.62257 0.35447 1.82459 0.341867 2.02452 0.354191C2.22444 0.366516 2.41797 0.403502 2.59294 0.462828C2.76792 0.522155 2.92056 0.602541 3.0413 0.698942L10.0851 5.94894C10.2995 6.10551 10.4168 6.3019 10.4168 6.50457C10.4168 6.70724 10.2995 6.90363 10.0851 7.06019L2.79339 12.3102C2.64709 12.4161 2.46125 12.4998 2.25094 12.5545C2.04064 12.6092 1.81179 12.6335 1.58297 12.6252Z" fill="#393939"/>
</svg>
