<svg width="20" height="6" viewBox="0 0 20 6" fill="none" xmlns="http://www.w3.org/2000/svg">
<path d="M17.5663 5.46485H17.0351C16.9921 5.45313 16.9531 5.4336 16.9101 5.42578C15.7929 5.25391 14.9101 4.32422 14.8359 3.2344C14.7499 2.01565 15.4453 0.984395 16.5781 0.648458C16.7265 0.605489 16.8828 0.574238 17.0351 0.535176H17.5663C17.6015 0.546895 17.6327 0.566426 17.6718 0.570333C18.703 0.738301 19.4882 1.48049 19.7109 2.49611C19.7265 2.57424 19.7499 2.65236 19.7695 2.73049V3.26174C19.7577 3.2969 19.7382 3.33205 19.7343 3.36721C19.5702 4.38283 18.8476 5.15625 17.8437 5.39065C17.746 5.41408 17.6562 5.44143 17.5663 5.46487L17.5663 5.46485ZM2.55076 0.535156L3.08205 0.535176C3.12502 0.546895 3.16408 0.566426 3.20705 0.570333C4.33205 0.746114 5.21096 1.67971 5.28127 2.78127C5.3594 3.99611 4.65627 5.02346 3.51955 5.35549C3.375 5.39846 3.22658 5.42971 3.08203 5.46487H2.55078C2.51563 5.45315 2.48438 5.43362 2.44922 5.4258C1.43359 5.2383 0.769531 4.64846 0.453125 3.66408C0.410156 3.53518 0.386719 3.39846 0.351562 3.26565V2.7344C0.363281 2.69924 0.382813 2.66408 0.386719 2.62893C0.554688 1.6094 1.27344 0.839864 2.27734 0.605489C2.37109 0.582032 2.46094 0.558594 2.55076 0.535156ZM9.79297 0.535176H10.3242C10.3672 0.546895 10.4063 0.566426 10.4492 0.574238C11.5703 0.75002 12.4727 1.71877 12.5195 2.81252C12.5742 4.04299 11.832 5.08596 10.6875 5.37893C10.5664 5.41018 10.4453 5.43752 10.3242 5.46487H9.79297C9.75 5.45315 9.71094 5.43362 9.66797 5.4258C8.54688 5.25393 7.64451 4.28127 7.59375 3.18752C7.53516 1.95705 8.28125 0.914082 9.42578 0.621113C9.55078 0.589863 9.67188 0.56252 9.79297 0.535176Z" fill="#393939" fill-opacity="0.7"/>
</svg>
