<svg width="15" height="18" viewBox="0 0 15 18" fill="none" xmlns="http://www.w3.org/2000/svg">
<path d="M2.66667 10V14H0.5V16H3.75V18H5.91667V16H8.08334V18H10.25V15.949C12.382 15.7 14.0417 14.034 14.0417 12C14.0417 10.68 13.3375 9.516 12.265 8.787C13.056 8.04302 13.4994 7.0424 13.5 6C13.5 4.142 12.1144 2.589 10.25 2.142V0H8.08334V2H5.91667V0H3.75V2H0.5V4H2.66667V10ZM9.70834 14H4.83333V10H9.70834C10.9033 10 11.875 10.897 11.875 12C11.875 13.103 10.9033 14 9.70834 14ZM4.83333 4H9.16667C10.3616 4 11.3333 4.897 11.3333 6C11.3333 7.103 10.3616 8 9.16667 8H4.83333V4Z" fill="white"/>
</svg>
