<svg width="22" height="18" viewBox="0 0 22 18" fill="none" xmlns="http://www.w3.org/2000/svg">
<path d="M14.2652 7.07344H20.7932C20.9937 7.07344 21.1562 6.92344 21.1562 6.73828V0.710156C21.1562 0.525 20.9937 0.375 20.7932 0.375H14.2652C14.0646 0.375 13.9021 0.525 13.9021 0.710156V2.8875H10.4566C10.3576 2.8875 10.2764 2.9625 10.2764 3.05391V8.24531H8.10039V5.98359C8.10039 5.79844 7.93789 5.64844 7.7373 5.64844H1.20684C1.00625 5.64844 0.84375 5.79844 0.84375 5.98359V12.0117C0.84375 12.1969 1.00625 12.3469 1.20684 12.3469H7.73477C7.93535 12.3469 8.09785 12.1969 8.09785 12.0117V9.75H10.2738V14.9414C10.2738 15.0328 10.3551 15.1078 10.4541 15.1078H13.8996V17.2852C13.8996 17.4703 14.0621 17.6203 14.2627 17.6203H20.7906C20.9912 17.6203 21.1537 17.4703 21.1537 17.2852V11.2617C21.1537 11.0766 20.9912 10.9266 20.7906 10.9266H14.2652C14.0646 10.9266 13.9021 11.0766 13.9021 11.2617V13.6055H11.9064V4.39453H13.9021V6.73828C13.9021 6.92344 14.0646 7.07344 14.2652 7.07344ZM15.6236 1.96641H19.4322V5.48438H15.6236V1.96641ZM6.37637 10.7578H2.56777V7.24219H6.37637V10.7578ZM15.6236 12.518H19.4322V16.0359H15.6236V12.518Z" fill="white"/>
</svg>
