<svg width="16" height="20" viewBox="0 0 16 20" fill="none" xmlns="http://www.w3.org/2000/svg">
<path d="M7.14955 0.25L0.630859 9.66475L8.00348 13.0098L15.2591 9.66175L8.8558 0.25H7.14955ZM7.18773 2.97775V6.241L4.00761 7.573L7.18773 2.97775ZM8.81273 3.00775L11.9149 7.56775L8.81273 6.25375V3.0085V3.00775ZM7.18773 7.888V10.9683L3.65823 9.3655L7.18773 7.888ZM8.81273 7.90525L12.2626 9.36775L8.81273 10.9585V7.9045V7.90525ZM0.687735 11.134V13.024L7.12923 19.6562H8.87123L15.3127 13.0233V11.1332L8.00023 14.5938L0.687735 11.134ZM4.36105 14.5585L7.18773 15.8958V17.4678L4.36105 14.5585ZM11.6394 14.5585L8.81273 17.4678V15.8958L11.6394 14.5585Z" fill="white"/>
</svg>
